<svg width="104" height="105" viewBox="0 0 104 105" fill="none" xmlns="http://www.w3.org/2000/svg">
<g filter="url(#filter0_d_18670_388)">
<ellipse cx="51.9209" cy="50.7109" rx="18.9209" ry="19.1015" fill="#888FD1"/>
</g>
<g clip-path="url(#clip0_18670_388)">
<path d="M60.5967 56.2783H59.02V54.6865C59.02 54.4754 58.9369 54.273 58.7891 54.1237C58.6412 53.9745 58.4407 53.8906 58.2316 53.8906C58.0225 53.8906 57.822 53.9745 57.6741 54.1237C57.5263 54.273 57.4432 54.4754 57.4432 54.6865V56.2783H55.8665C55.6574 56.2783 55.4569 56.3622 55.309 56.5114C55.1612 56.6607 55.0781 56.8631 55.0781 57.0742C55.0781 57.2853 55.1612 57.4877 55.309 57.637C55.4569 57.7863 55.6574 57.8701 55.8665 57.8701H57.4432V59.4619C57.4432 59.673 57.5263 59.8754 57.6741 60.0247C57.822 60.174 58.0225 60.2578 58.2316 60.2578C58.4407 60.2578 58.6412 60.174 58.7891 60.0247C58.9369 59.8754 59.02 59.673 59.02 59.4619V57.8701H60.5967C60.8058 57.8701 61.0063 57.7863 61.1542 57.637C61.302 57.4877 61.3851 57.2853 61.3851 57.0742C61.3851 56.8631 61.302 56.6607 61.1542 56.5114C61.0063 56.3622 60.8058 56.2783 60.5967 56.2783Z" fill="white"/>
<path d="M59.0167 45.9316H56.6516C56.6516 44.6651 56.1532 43.4505 55.2661 42.5549C54.3791 41.6594 53.1759 41.1562 51.9214 41.1562C50.6668 41.1562 49.4637 41.6594 48.5766 42.5549C47.6895 43.4505 47.1912 44.6651 47.1912 45.9316H44.826C44.1988 45.9316 43.5972 46.1832 43.1537 46.631C42.7101 47.0788 42.4609 47.6861 42.4609 48.3193V56.2783C42.4622 57.3333 42.8779 58.3448 43.6169 59.0908C44.3558 59.8369 45.3577 60.2565 46.4028 60.2578H53.4981C53.7072 60.2578 53.9077 60.1739 54.0556 60.0247C54.2034 59.8754 54.2865 59.673 54.2865 59.4619C54.2865 59.2508 54.2034 59.0484 54.0556 58.8991C53.9077 58.7498 53.7072 58.666 53.4981 58.666H46.4028C45.7755 58.666 45.1739 58.4144 44.7304 57.9667C44.2869 57.5189 44.0377 56.9116 44.0377 56.2783V48.3193C44.0377 48.1082 44.1207 47.9058 44.2686 47.7565C44.4164 47.6073 44.617 47.5234 44.826 47.5234H47.1912V49.1152C47.1912 49.3263 47.2742 49.5287 47.4221 49.678C47.5699 49.8273 47.7704 49.9111 47.9795 49.9111C48.1886 49.9111 48.3891 49.8273 48.537 49.678C48.6848 49.5287 48.7679 49.3263 48.7679 49.1152V47.5234H55.0748V49.1152C55.0748 49.3263 55.1579 49.5287 55.3058 49.678C55.4536 49.8273 55.6541 49.9111 55.8632 49.9111C56.0723 49.9111 56.2728 49.8273 56.4207 49.678C56.5685 49.5287 56.6516 49.3263 56.6516 49.1152V47.5234H59.0167C59.2258 47.5234 59.4263 47.6073 59.5742 47.7565C59.722 47.9058 59.8051 48.1082 59.8051 48.3193V52.2988C59.8051 52.5099 59.8881 52.7123 60.036 52.8616C60.1838 53.0109 60.3843 53.0947 60.5934 53.0947C60.8025 53.0947 61.003 53.0109 61.1509 52.8616C61.2987 52.7123 61.3818 52.5099 61.3818 52.2988V48.3193C61.3818 47.6861 61.1326 47.0788 60.6891 46.631C60.2455 46.1832 59.644 45.9316 59.0167 45.9316ZM48.7679 45.9316C48.7679 45.0873 49.1001 44.2775 49.6915 43.6805C50.2829 43.0835 51.085 42.748 51.9214 42.748C52.7577 42.748 53.5598 43.0835 54.1512 43.6805C54.7426 44.2775 55.0748 45.0873 55.0748 45.9316H48.7679Z" fill="white"/>
</g>
<defs>
<filter id="filter0_d_18670_388" x="0" y="0.609375" width="103.844" height="104.203" filterUnits="userSpaceOnUse" color-interpolation-filters="sRGB">
<feFlood flood-opacity="0" result="BackgroundImageFix"/>
<feColorMatrix in="SourceAlpha" type="matrix" values="0 0 0 0 0 0 0 0 0 0 0 0 0 0 0 0 0 0 127 0" result="hardAlpha"/>
<feOffset dy="2"/>
<feGaussianBlur stdDeviation="16.5"/>
<feComposite in2="hardAlpha" operator="out"/>
<feColorMatrix type="matrix" values="0 0 0 0 0 0 0 0 0 0 0 0 0 0 0 0 0 0 0.09 0"/>
<feBlend mode="normal" in2="BackgroundImageFix" result="effect1_dropShadow_18670_388"/>
<feBlend mode="normal" in="SourceGraphic" in2="effect1_dropShadow_18670_388" result="shape"/>
</filter>
<clipPath id="clip0_18670_388">
<rect width="18.9209" height="19.1015" fill="white" transform="translate(42.4609 41.1562)"/>
</clipPath>
</defs>
</svg>
