<svg width="101" height="102" viewBox="0 0 101 102" fill="none" xmlns="http://www.w3.org/2000/svg">
<rect x="31" y="31" width="38" height="36" rx="5" fill="#888FD1"/>
<g filter="url(#filter0_d_18670_384)">
<ellipse cx="50.4654" cy="48.6322" rx="17.4654" ry="17.6322" fill="#868DCD"/>
</g>
<g clip-path="url(#clip0_18670_384)">
<path d="M58.4691 53.7743H57.0136V52.305C57.0136 52.1101 56.937 51.9233 56.8005 51.7855C56.664 51.6477 56.4789 51.5703 56.2859 51.5703C56.0929 51.5703 55.9078 51.6477 55.7713 51.7855C55.6348 51.9233 55.5582 52.1101 55.5582 52.305V53.7743H54.1027C53.9097 53.7743 53.7246 53.8517 53.5881 53.9895C53.4517 54.1273 53.375 54.3142 53.375 54.509C53.375 54.7039 53.4517 54.8907 53.5881 55.0285C53.7246 55.1663 53.9097 55.2437 54.1027 55.2437H55.5582V56.713C55.5582 56.9079 55.6348 57.0947 55.7713 57.2325C55.9078 57.3703 56.0929 57.4477 56.2859 57.4477C56.4789 57.4477 56.664 57.3703 56.8005 57.2325C56.937 57.0947 57.0136 56.9079 57.0136 56.713V55.2437H58.4691C58.6621 55.2437 58.8472 55.1663 58.9837 55.0285C59.1201 54.8907 59.1968 54.7039 59.1968 54.509C59.1968 54.3142 59.1201 54.1273 58.9837 53.9895C58.8472 53.8517 58.6621 53.7743 58.4691 53.7743Z" fill="white"/>
<path d="M57.0166 44.2205H54.8334C54.8334 43.0515 54.3734 41.9303 53.5546 41.1036C52.7357 40.2769 51.6251 39.8125 50.4671 39.8125C49.3091 39.8125 48.1985 40.2769 47.3796 41.1036C46.5608 41.9303 46.1007 43.0515 46.1007 44.2205H43.9176C43.3385 44.2205 42.7832 44.4528 42.3738 44.8661C41.9644 45.2794 41.7344 45.84 41.7344 46.4246V53.7713C41.7355 54.7452 42.1193 55.6789 42.8014 56.3675C43.4835 57.0561 44.4083 57.4435 45.373 57.4447H51.9225C52.1155 57.4447 52.3006 57.3673 52.4371 57.2295C52.5736 57.0917 52.6503 56.9049 52.6503 56.71C52.6503 56.5152 52.5736 56.3283 52.4371 56.1905C52.3006 56.0527 52.1155 55.9753 51.9225 55.9753H45.373C44.794 55.9753 44.2387 55.7431 43.8293 55.3298C43.4198 54.9165 43.1898 54.3559 43.1898 53.7713V46.4246C43.1898 46.2297 43.2665 46.0429 43.403 45.9051C43.5394 45.7673 43.7245 45.6899 43.9176 45.6899H46.1007V47.1592C46.1007 47.3541 46.1774 47.541 46.3139 47.6787C46.4503 47.8165 46.6354 47.8939 46.8285 47.8939C47.0215 47.8939 47.2066 47.8165 47.343 47.6787C47.4795 47.541 47.5562 47.3541 47.5562 47.1592V45.6899H53.378V47.1592C53.378 47.3541 53.4547 47.541 53.5911 47.6787C53.7276 47.8165 53.9127 47.8939 54.1057 47.8939C54.2987 47.8939 54.4838 47.8165 54.6203 47.6787C54.7568 47.541 54.8334 47.3541 54.8334 47.1592V45.6899H57.0166C57.2096 45.6899 57.3947 45.7673 57.5312 45.9051C57.6677 46.0429 57.7443 46.2297 57.7443 46.4246V50.0979C57.7443 50.2928 57.821 50.4797 57.9575 50.6174C58.094 50.7552 58.2791 50.8326 58.4721 50.8326C58.6651 50.8326 58.8502 50.7552 58.9866 50.6174C59.1231 50.4797 59.1998 50.2928 59.1998 50.0979V46.4246C59.1998 45.84 58.9698 45.2794 58.5603 44.8661C58.1509 44.4528 57.5956 44.2205 57.0166 44.2205ZM47.5562 44.2205C47.5562 43.4412 47.8629 42.6937 48.4088 42.1426C48.9547 41.5915 49.6951 41.2818 50.4671 41.2818C51.2391 41.2818 51.9795 41.5915 52.5254 42.1426C53.0713 42.6937 53.378 43.4412 53.378 44.2205H47.5562Z" fill="white"/>
</g>
<defs>
<filter id="filter0_d_18670_384" x="0" y="0" width="100.93" height="101.266" filterUnits="userSpaceOnUse" color-interpolation-filters="sRGB">
<feFlood flood-opacity="0" result="BackgroundImageFix"/>
<feColorMatrix in="SourceAlpha" type="matrix" values="0 0 0 0 0 0 0 0 0 0 0 0 0 0 0 0 0 0 127 0" result="hardAlpha"/>
<feOffset dy="2"/>
<feGaussianBlur stdDeviation="16.5"/>
<feComposite in2="hardAlpha" operator="out"/>
<feColorMatrix type="matrix" values="0 0 0 0 0 0 0 0 0 0 0 0 0 0 0 0 0 0 0.09 0"/>
<feBlend mode="normal" in2="BackgroundImageFix" result="effect1_dropShadow_18670_384"/>
<feBlend mode="normal" in="SourceGraphic" in2="effect1_dropShadow_18670_384" result="shape"/>
</filter>
<clipPath id="clip0_18670_384">
<rect width="17.4654" height="17.6322" fill="white" transform="translate(41.7344 39.8125)"/>
</clipPath>
</defs>
</svg>
