<svg width="58" height="58" viewBox="0 0 58 58" fill="none" xmlns="http://www.w3.org/2000/svg">
<g clip-path="url(#clip0_18655_5147)">
<path d="M55.3629 29.2433V21.0915C55.3629 18.3273 53.2188 16.0793 50.5098 15.8613L42.9395 2.6385C42.2379 1.41557 41.1051 0.541509 39.7496 0.178561C38.4005 -0.181914 36.9897 0.00740666 35.7822 0.710192L9.83059 15.8188H5.27268C2.36478 15.8188 0 18.1834 0 21.0915V52.7273C0 55.6352 2.36466 58 5.27268 58H50.0902C52.9981 58 55.3629 55.6353 55.3629 52.7273V44.5755C56.8939 44.0296 57.9991 42.5801 57.9991 40.8639V32.9549C57.9991 31.2387 56.8939 29.7892 55.3629 29.2433ZM47.4465 15.8188H35.9574L44.5743 10.802L47.4465 15.8188ZM43.2645 8.51424L30.7178 15.8188H25.5136L41.9632 6.24152L43.2645 8.51424ZM37.1093 2.98859C37.7054 2.63973 38.4017 2.54705 39.0673 2.72475C39.7406 2.90493 40.3018 3.34005 40.6507 3.94891L40.6534 3.95373L20.2743 15.8188H15.0703L37.1093 2.98859ZM52.7265 52.7273C52.7265 54.1806 51.5435 55.3636 50.0902 55.3636H5.27268C3.81941 55.3636 2.6364 54.1806 2.6364 52.7273V21.0915C2.6364 19.6382 3.81941 18.4552 5.27268 18.4552H50.0902C51.5435 18.4552 52.7265 19.6382 52.7265 21.0915V29.0004H44.8175C40.4562 29.0004 36.9085 32.5481 36.9085 36.9094C36.9085 41.2707 40.4562 44.8183 44.8175 44.8183H52.7265V52.7273ZM55.3629 40.8639C55.3629 41.5911 54.772 42.1821 54.0447 42.1821H44.8175C41.9096 42.1821 39.5448 39.8174 39.5448 36.9094C39.5448 34.0015 41.9095 31.6367 44.8175 31.6367H54.0447C54.7719 31.6367 55.3629 32.2275 55.3629 32.9549V40.8639Z" fill="#888FD1"/>
<path d="M44.816 34.2734C43.3627 34.2734 42.1797 35.4564 42.1797 36.9097C42.1797 38.363 43.3627 39.546 44.816 39.546C46.2692 39.546 47.4522 38.363 47.4522 36.9097C47.4524 35.4564 46.2694 34.2734 44.816 34.2734Z" fill="#888FD1"/>
</g>
<defs>
<clipPath id="clip0_18655_5147">
<rect width="58" height="58" fill="white"/>
</clipPath>
</defs>
</svg>
