<svg width="58" height="58" viewBox="0 0 58 58" fill="none" xmlns="http://www.w3.org/2000/svg">
<path d="M49.9591 23.9752H49.8155V20.4579C49.8155 9.15933 40.6563 0 29.3576 0C18.0589 0 8.8997 9.15933 8.8997 20.4579V23.9752H8.03837C4.87992 23.9752 2.43937 26.7747 2.43937 30.005V38.9777C2.35981 42.1086 4.83348 44.7111 7.96431 44.7907C7.98905 44.7913 8.01364 44.7918 8.03837 44.792H13.3502C14.1026 44.7567 14.6839 44.118 14.6485 43.3656C14.6472 43.3385 14.6452 43.3115 14.6423 43.2845V25.6979C14.6423 24.8366 14.1398 23.9751 13.3502 23.9751H11.771V20.4578C11.771 10.745 19.6449 2.87115 29.3576 2.87115C39.0704 2.87115 46.9442 10.745 46.9442 20.4578V23.9751H45.365C44.5754 23.9751 44.073 24.8364 44.073 25.6979V43.2845C43.9929 44.0335 44.535 44.7056 45.284 44.7857C45.3109 44.7886 45.338 44.7907 45.365 44.7919H47.016L46.8724 45.0072C44.7184 47.8698 41.3385 49.5465 37.7561 49.5294C36.9718 45.6839 33.2184 43.2021 29.3729 43.9865C26.0843 44.6571 23.7133 47.5372 23.6868 50.8934C23.7261 54.8297 26.9285 58 30.865 57.9997C32.8137 57.9681 34.6711 57.1685 36.0333 55.7745C36.9523 54.8333 37.5545 53.6288 37.7561 52.3289C42.2423 52.3459 46.4731 50.2437 49.1694 46.6581L50.5333 44.6482C53.6199 44.4329 55.558 42.4948 55.558 39.6952V30.7225C55.5581 27.6361 53.2611 23.9752 49.9591 23.9752ZM11.771 41.9207H8.03837C6.49267 41.8831 5.27013 40.5997 5.30777 39.054C5.30846 39.0286 5.30942 39.0031 5.31066 38.9776V30.0048C5.31066 28.3539 6.45915 26.8464 8.03837 26.8464H11.771V41.9207ZM33.9517 53.7648C33.1562 54.6273 32.0385 55.1213 30.8651 55.1287C28.5297 55.0916 26.6344 53.228 26.5582 50.8935C26.5572 48.5545 28.4526 46.6576 30.7916 46.6566C33.1306 46.6557 35.0275 48.551 35.0285 50.8901C35.0285 50.8912 35.0285 50.8924 35.0285 50.8935C35.0882 51.9593 34.6975 53.0011 33.9517 53.7648ZM52.6868 39.6955C52.6868 41.6336 50.8204 41.9207 49.9591 41.9207H46.9442V26.8465H49.9591C51.5383 26.8465 52.6868 29.0718 52.6868 30.7227V39.6955Z" fill="#888FD1"/>
</svg>
