<svg width="58" height="58" viewBox="0 0 58 58" fill="none" xmlns="http://www.w3.org/2000/svg">
<path d="M53.9398 32.5043L52.4378 26.4964C52.8484 26.4092 53.1565 26.0449 53.1565 25.6084V24.6397C53.1565 22.5365 51.4454 20.8256 49.3424 20.8256H42.5011V18.8276C42.5011 17.7927 41.6592 16.9508 40.6242 16.9508H27.9034L35.6337 13.8586C36.0994 13.6724 36.3259 13.1438 36.1397 12.6781C35.9534 12.2125 35.4252 11.9859 34.9592 12.1722L28.6297 14.7039C30.5584 13.4665 32.4666 12.1045 33.1931 11.152C34.6074 9.29771 34.2492 6.63855 32.3949 5.22423C30.5406 3.8098 27.8815 4.16811 26.4671 6.02241C25.4338 7.37748 24.0703 11.185 23.1879 13.868C22.3054 11.1852 20.942 7.37748 19.9086 6.02241C18.4944 4.16811 15.8351 3.81003 13.9808 5.22423C12.1265 6.63843 11.7684 9.2976 13.1827 11.152C13.9091 12.1046 15.8172 13.4665 17.7461 14.7039L11.4166 12.1722C10.9507 11.9856 10.4223 12.2124 10.2361 12.6781C10.0497 13.1438 10.2763 13.6724 10.742 13.8586L18.4723 16.9508H5.75152C4.71658 16.9508 3.87467 17.7927 3.87467 18.8276V35.2953C3.87467 35.7968 4.28124 36.2035 4.78285 36.2035C5.28434 36.2035 5.69102 35.7969 5.69102 35.2953V18.8276C5.69102 18.7942 5.7181 18.7671 5.75152 18.7671H40.6241C40.6575 18.7671 40.6846 18.7942 40.6846 18.8276V35.2955C40.6846 35.797 41.0912 36.2037 41.5928 36.2037C42.0943 36.2037 42.501 35.7971 42.501 35.2955V34.266H53.2135C53.2145 34.266 53.2153 34.2663 53.2164 34.2663C53.2174 34.2663 53.2183 34.2661 53.2193 34.2661C54.5374 34.2672 55.6567 35.1324 56.0409 36.3246H53.217C52.7155 36.3246 52.3089 36.7311 52.3089 37.2327V39.1701C52.3089 40.7391 53.5853 42.0156 55.1544 42.0156H56.1836V46.0114H53.809C53.029 43.7591 50.8879 42.1366 48.3736 42.1366C45.8593 42.1366 43.7181 43.759 42.9381 46.0114H42.5009V39.17C42.5009 38.6685 42.0943 38.2618 41.5927 38.2618C41.0912 38.2618 40.6845 38.6684 40.6845 39.17V46.0113H21.8426C21.0625 43.759 18.9214 42.1365 16.4071 42.1365C13.8928 42.1365 11.7516 43.7589 10.9716 46.0113H5.75152C5.7181 46.0113 5.69102 45.9842 5.69102 45.9508V43.9528H9.6263C10.1278 43.9528 10.5345 43.5463 10.5345 43.0446C10.5345 42.543 10.1279 42.1365 9.6263 42.1365H0.908176C0.40668 42.1365 0 42.543 0 43.0446C0 43.5463 0.406566 43.9528 0.908176 43.9528H3.87479V45.9508C3.87479 46.9857 4.71669 47.8276 5.75163 47.8276H10.6572C10.6569 47.8478 10.6556 47.8678 10.6556 47.8881C10.6556 51.0594 13.2358 53.6396 16.4071 53.6396C19.5784 53.6396 22.1586 51.0594 22.1586 47.8881C22.1586 47.8677 22.1572 47.8478 22.157 47.8276H42.6235C42.6233 47.8478 42.622 47.8678 42.622 47.8881C42.622 51.0594 45.2022 53.6396 48.3735 53.6396C51.5448 53.6396 54.125 51.0594 54.125 47.8881C54.125 47.8677 54.1236 47.8478 54.1234 47.8276H57.0917C57.5932 47.8276 57.9999 47.421 57.9999 46.9194V37.2326C58 34.8408 56.2354 32.8536 53.9398 32.5043ZM19.5863 13.7133C16.004 11.4872 14.9415 10.463 14.6269 10.0505C13.82 8.99253 14.0243 7.47535 15.0824 6.66845C15.5185 6.33586 16.0326 6.17511 16.5429 6.17511C17.2704 6.17511 17.9902 6.50204 18.4645 7.12396C19.343 8.2758 20.7188 12.1526 21.6271 14.9463C21.0141 14.5853 20.3095 14.1629 19.5863 13.7133ZM24.7489 14.9461C25.6572 12.1526 27.033 8.27591 27.9114 7.12384C28.7183 6.06591 30.2354 5.86166 31.2934 6.66845C32.3514 7.47535 32.5557 8.99253 31.7489 10.0505C31.4343 10.4629 30.3717 11.4872 26.7897 13.7132C26.0666 14.1627 25.362 14.5852 24.7489 14.9461ZM42.5011 22.6417H49.3424C50.444 22.6417 51.3403 23.538 51.3403 24.6396V24.7001H42.5011V22.6417ZM42.5011 32.4497V26.5165H50.5707L52.054 32.4497H42.5011ZM16.4071 51.8234C14.2372 51.8234 12.4718 50.058 12.4718 47.8881C12.4718 45.7182 14.2372 43.9528 16.4071 43.9528C18.577 43.9528 20.3424 45.7182 20.3424 47.8881C20.3424 50.058 18.577 51.8234 16.4071 51.8234ZM48.3737 51.8234C46.2038 51.8234 44.4384 50.058 44.4384 47.8881C44.4384 45.7182 46.2038 43.9528 48.3737 43.9528C50.5436 43.9528 52.309 45.7182 52.309 47.8881C52.309 50.058 50.5436 51.8234 48.3737 51.8234ZM56.1838 40.1991H55.1545C54.5869 40.1991 54.1252 39.7374 54.1252 39.1699V38.1406H56.1836V40.1991H56.1838Z" fill="#888FD1"/>
<path d="M16.4081 46.0078C15.3732 46.0078 14.5312 46.8497 14.5312 47.8847C14.5312 48.9196 15.3732 49.7615 16.4081 49.7615C17.443 49.7615 18.2849 48.9196 18.2849 47.8847C18.2849 46.8497 17.443 46.0078 16.4081 46.0078Z" fill="#888FD1"/>
<path d="M48.3768 46.0078C47.3419 46.0078 46.5 46.8497 46.5 47.8847C46.5 48.9196 47.3419 49.7615 48.3768 49.7615C49.4118 49.7615 50.2537 48.9196 50.2537 47.8847C50.2537 46.8497 49.4118 46.0078 48.3768 46.0078Z" fill="#888FD1"/>
<path d="M37.7197 42.1406H24.1582C23.6567 42.1406 23.25 42.5472 23.25 43.0488C23.25 43.5504 23.6566 43.957 24.1582 43.957H37.7197C38.2212 43.957 38.6279 43.5504 38.6279 43.0488C38.6279 42.5472 38.2213 42.1406 37.7197 42.1406Z" fill="#888FD1"/>
<path d="M14.4699 38.2656H2.84568C2.34418 38.2656 1.9375 38.6722 1.9375 39.1738C1.9375 39.6754 2.34407 40.082 2.84568 40.082H14.4699C14.9714 40.082 15.3781 39.6754 15.3781 39.1738C15.3781 38.6722 14.9714 38.2656 14.4699 38.2656Z" fill="#888FD1"/>
<path d="M14.4705 24.7031H10.5957C10.0942 24.7031 9.6875 25.1097 9.6875 25.6113V33.3608C9.6875 33.8623 10.0941 34.2689 10.5957 34.2689C11.0973 34.2689 11.5039 33.8624 11.5039 33.3608V30.3942H13.5018C14.0033 30.3942 14.41 29.9876 14.41 29.486C14.41 28.9844 14.0034 28.5778 13.5018 28.5778H11.5039V26.5195H14.4705C14.972 26.5195 15.3786 26.1129 15.3786 25.6113C15.3785 25.1098 14.972 24.7031 14.4705 24.7031Z" fill="#888FD1"/>
<path d="M21.6177 30.82C22.5266 30.2247 23.1286 29.1981 23.1286 28.033C23.1286 26.1969 21.6348 24.7031 19.7987 24.7031H17.3769C16.8754 24.7031 16.4688 25.1097 16.4688 25.6113V33.3608C16.4688 33.8623 16.8753 34.2689 17.3769 34.2689C17.8785 34.2689 18.2851 33.8624 18.2851 33.3608V31.3628H19.797L21.4647 33.8644C21.6397 34.1269 21.9275 34.2689 22.2211 34.2689C22.3943 34.2689 22.5692 34.2196 22.7239 34.1162C23.1414 33.8381 23.2541 33.2742 22.9757 32.857L21.6177 30.82ZM19.7987 29.5466H18.2851V26.5195H19.7987C20.6333 26.5195 21.3122 27.1984 21.3122 28.033C21.3122 28.8677 20.6333 29.5466 19.7987 29.5466Z" fill="#888FD1"/>
<path d="M29.0017 32.4527H26.0351V30.3912C26.0551 30.3926 26.0752 30.3943 26.0956 30.3943H28.0329C28.5344 30.3943 28.9411 29.9877 28.9411 29.4861C28.9411 28.9845 28.5345 28.5779 28.0329 28.5779H26.0956C26.0751 28.5779 26.0551 28.5796 26.0351 28.581V26.5195H29.0017C29.5032 26.5195 29.9099 26.1129 29.9099 25.6113C29.9099 25.1098 29.5033 24.7031 29.0017 24.7031H25.1269C24.6254 24.7031 24.2188 25.1097 24.2188 25.6113V33.3608C24.2188 33.8623 24.6253 34.2689 25.1269 34.2689H29.0017C29.5032 34.2689 29.9099 33.8624 29.9099 33.3608C29.9099 32.8592 29.5032 32.4527 29.0017 32.4527Z" fill="#888FD1"/>
<path d="M35.783 32.4527H32.8164V30.3943H33.8456C34.3471 30.3943 34.7538 29.9877 34.7538 29.4861C34.7538 28.9845 34.3472 28.5779 33.8456 28.5779H32.8164V26.5195H35.783C36.2845 26.5195 36.6911 26.1129 36.6911 25.6113C36.6911 25.1098 36.2846 24.7031 35.783 24.7031H31.9082C31.4067 24.7031 31 25.1097 31 25.6113V33.3608C31 33.8623 31.4066 34.2689 31.9082 34.2689H35.783C36.2845 34.2689 36.6911 33.8624 36.6911 33.3608C36.6911 32.8592 36.2845 32.4527 35.783 32.4527Z" fill="#888FD1"/>
</svg>
