<svg width="101" height="15" viewBox="0 0 101 15" fill="none" xmlns="http://www.w3.org/2000/svg">
<path d="M26.6154 5.29869L26.3073 5.34177L22.0068 5.94296L22.0064 5.94302C21.855 5.96407 21.7667 6.05545 21.7326 6.15603C21.6993 6.25448 21.7162 6.36163 21.8122 6.45126L21.8124 6.45142L24.9237 9.35858L25.1622 9.58147L25.1046 9.90281L24.3688 14.0091C24.3688 14.0092 24.3688 14.0093 24.3688 14.0094C24.349 14.121 24.3925 14.2224 24.4964 14.2942C24.6034 14.3682 24.7434 14.3854 24.872 14.32L24.8739 14.3191L28.7211 12.38L28.9911 12.2439L29.2612 12.38L33.1083 14.3191L33.1084 14.3191C33.2379 14.3844 33.379 14.3669 33.4863 14.2929C33.59 14.2214 33.6332 14.1208 33.6135 14.0095C33.6135 14.0094 33.6134 14.0092 33.6134 14.0091L32.8776 9.90281L32.82 9.58147L33.0586 9.35858L36.1699 6.45142L36.17 6.45126C36.266 6.36163 36.2829 6.25448 36.2496 6.15603C36.2156 6.05545 36.1272 5.96407 35.9759 5.94302L35.9754 5.94296L31.675 5.34177L31.3668 5.29869L31.2245 5.02199L29.3029 1.28613C29.3029 1.28601 29.3028 1.28589 29.3027 1.28576C29.2461 1.17656 29.132 1.10826 28.9903 1.10781C28.8501 1.10737 28.7375 1.17338 28.6799 1.28501L26.6154 5.29869ZM26.6154 5.29869L26.7578 5.02199L28.6798 1.28524L26.6154 5.29869Z" fill="#888FD1" stroke="#888FD1" stroke-width="1.2"/>
<path d="M5.52169 5.29869L5.21353 5.34177L0.913045 5.94296L0.912625 5.94302C0.761279 5.96407 0.672924 6.05545 0.638884 6.15603C0.605566 6.25448 0.622441 6.36163 0.718438 6.45126L0.718611 6.45142L3.82991 9.35858L4.06845 9.58147L4.01086 9.90281L3.27506 14.0091C3.27504 14.0092 3.27503 14.0093 3.27501 14.0094C3.2552 14.121 3.29872 14.2224 3.40263 14.2942C3.50965 14.3682 3.64963 14.3854 3.77828 14.32L3.78013 14.3191L7.62731 12.38L7.89736 12.2439L8.16741 12.38L12.0146 14.3191L12.0147 14.3191C12.1442 14.3844 12.2852 14.3669 12.3925 14.2929C12.4962 14.2214 12.5394 14.1208 12.5197 14.0095C12.5197 14.0094 12.5197 14.0092 12.5197 14.0091L11.7839 9.90281L11.7263 9.58147L11.9648 9.35858L15.0761 6.45142L15.0763 6.45126C15.1723 6.36163 15.1892 6.25448 15.1558 6.15603C15.1218 6.05545 15.0334 5.96407 14.8821 5.94302L14.8817 5.94296L10.5812 5.34177L10.273 5.29869L10.1307 5.02199L8.20918 1.28613C8.20911 1.28601 8.20905 1.28589 8.20898 1.28576C8.15235 1.17656 8.03824 1.10826 7.89658 1.10781C7.75639 1.10737 7.64372 1.17338 7.58613 1.28501L5.52169 5.29869ZM5.52169 5.29869L5.66401 5.02199L7.58601 1.28524L5.52169 5.29869Z" fill="#888FD1" stroke="#888FD1" stroke-width="1.2"/>
<path d="M47.717 5.29869L47.4088 5.34177L43.1084 5.94296L43.1079 5.94302C42.9566 5.96407 42.8682 6.05545 42.8342 6.15603C42.8009 6.25448 42.8178 6.36163 42.9138 6.45126L42.9139 6.45142L46.0252 9.35858L46.2638 9.58147L46.2062 9.90281L45.4704 14.0091C45.4704 14.0092 45.4703 14.0093 45.4703 14.0094C45.4505 14.121 45.494 14.2224 45.5979 14.2942C45.705 14.3682 45.8449 14.3854 45.9736 14.32L45.9754 14.3191L49.8226 12.38L50.0927 12.2439L50.3627 12.38L54.2099 14.3191L54.21 14.3191C54.3395 14.3844 54.4805 14.3669 54.5878 14.2929C54.6916 14.2214 54.7347 14.1208 54.7151 14.0095C54.715 14.0094 54.715 14.0092 54.715 14.0091L53.9792 9.90281L53.9216 9.58147L54.1601 9.35858L57.2714 6.45142L57.2716 6.45126C57.3676 6.36163 57.3845 6.25448 57.3512 6.15603C57.3171 6.05545 57.2288 5.96407 57.0774 5.94302L57.077 5.94296L52.7765 5.34177L52.4683 5.29869L52.326 5.02199L50.4045 1.28613C50.4044 1.28601 50.4044 1.28589 50.4043 1.28576C50.3477 1.17656 50.2336 1.10826 50.0919 1.10781C49.9517 1.10737 49.839 1.17338 49.7814 1.28501L47.717 5.29869ZM47.717 5.29869L47.8593 5.02199L49.7813 1.28524L47.717 5.29869Z" fill="#888FD1" stroke="#888FD1" stroke-width="1.2"/>
<path d="M68.8108 5.29869L68.5026 5.34177L64.2021 5.94296L64.2017 5.94302C64.0503 5.96407 63.962 6.05545 63.9279 6.15603C63.8946 6.25448 63.9115 6.36163 64.0075 6.45126L64.0077 6.45142L67.119 9.35858L67.3575 9.58147L67.2999 9.90281L66.5641 14.0091C66.5641 14.0092 66.5641 14.0093 66.5641 14.0094C66.5443 14.121 66.5878 14.2224 66.6917 14.2942C66.7987 14.3682 66.9387 14.3854 67.0673 14.32L67.0692 14.3191L70.9164 12.38L71.1864 12.2439L71.4565 12.38L75.3037 14.3191L75.3037 14.3191C75.4332 14.3844 75.5743 14.3669 75.6816 14.2929C75.7853 14.2214 75.8285 14.1208 75.8088 14.0095C75.8088 14.0094 75.8088 14.0092 75.8087 14.0091L75.0729 9.90281L75.0153 9.58147L75.2539 9.35858L78.3652 6.45142L78.3654 6.45126C78.4613 6.36163 78.4782 6.25448 78.4449 6.15603C78.4109 6.05545 78.3225 5.96407 78.1712 5.94302L78.1707 5.94296L73.8703 5.34177L73.5621 5.29869L73.4198 5.02199L71.4982 1.28613C71.4982 1.28601 71.4981 1.28589 71.498 1.28576C71.4414 1.17656 71.3273 1.10826 71.1856 1.10781C71.0455 1.10737 70.9328 1.17338 70.8752 1.28501L68.8108 5.29869ZM68.8108 5.29869L68.9531 5.02199L70.8751 1.28524L68.8108 5.29869Z" fill="#888FD1" stroke="#888FD1" stroke-width="1.2"/>
<path d="M89.9123 5.29869L89.6042 5.34177L85.3037 5.94296L85.3032 5.94302C85.1519 5.96407 85.0635 6.05545 85.0295 6.15603C84.9962 6.25448 85.0131 6.36163 85.1091 6.45126L85.1092 6.45142L88.2205 9.35858L88.4591 9.58147L88.4015 9.90281L87.6657 14.0091C87.6657 14.0092 87.6657 14.0093 87.6656 14.0094C87.6458 14.121 87.6893 14.2224 87.7933 14.2942C87.9003 14.3682 88.0403 14.3854 88.1689 14.32L88.1708 14.3191L92.0179 12.38L92.288 12.2439L92.558 12.38L96.4052 14.3191L96.4053 14.3191C96.5348 14.3844 96.6759 14.3669 96.7832 14.2929C96.8869 14.2214 96.9301 14.1208 96.9104 14.0095C96.9103 14.0094 96.9103 14.0092 96.9103 14.0091L96.1745 9.90281L96.1169 9.58147L96.3554 9.35858L99.4667 6.45142L99.4669 6.45126C99.5629 6.36163 99.5798 6.25448 99.5465 6.15603C99.5124 6.05545 99.4241 5.96407 99.2727 5.94302L99.2723 5.94296L94.9718 5.34177L94.6637 5.29869L94.5213 5.02199L92.5998 1.28613C92.5997 1.28601 92.5997 1.28589 92.5996 1.28576C92.543 1.17656 92.4289 1.10826 92.2872 1.10781C92.147 1.10737 92.0343 1.17338 91.9768 1.28501L89.9123 5.29869ZM89.9123 5.29869L90.0546 5.02199L91.9766 1.28524L89.9123 5.29869Z" stroke="#918F8F" stroke-width="1.2"/>
</svg>
